<?xml version="1.0" encoding="UTF-8" standalone="no"?>
<!-- Created with Inkscape (http://www.inkscape.org/) -->

<svg
   width="87.3125mm"
   height="74.141731mm"
   viewBox="0 0 87.3125 74.141731"
   version="1.1"
   id="svg5"
   inkscape:version="1.2-beta (1b65182ce9, 2022-04-05)"
   sodipodi:docname="logo.svg"
   inkscape:export-filename="..\..\..\Code\quest\quest-client\src\assets\app\logo.svg"
   inkscape:export-xdpi="96"
   inkscape:export-ydpi="96"
   xmlns:inkscape="http://www.inkscape.org/namespaces/inkscape"
   xmlns:sodipodi="http://sodipodi.sourceforge.net/DTD/sodipodi-0.dtd"
   xmlns="http://www.w3.org/2000/svg"
   xmlns:svg="http://www.w3.org/2000/svg">
  <sodipodi:namedview
     id="namedview7"
     pagecolor="#ffffff"
     bordercolor="#000000"
     borderopacity="0.25"
     inkscape:pageshadow="2"
     inkscape:pageopacity="0.0"
     inkscape:pagecheckerboard="0"
     inkscape:deskcolor="#d1d1d1"
     inkscape:document-units="mm"
     showgrid="true"
     inkscape:lockguides="false"
     inkscape:zoom="4"
     inkscape:cx="129.125"
     inkscape:cy="148"
     inkscape:window-width="1954"
     inkscape:window-height="1031"
     inkscape:window-x="1062"
     inkscape:window-y="46"
     inkscape:window-maximized="0"
     inkscape:current-layer="layer1">
    <inkscape:grid
       type="xygrid"
       id="grid3249"
       empspacing="5"
       spacingx="0.26458334"
       enabled="true" />
    <inkscape:grid
       type="xygrid"
       id="grid10836"
       spacingx="0.052916668"
       spacingy="0.052916668"
       empspacing="10"
       enabled="false" />
  </sodipodi:namedview>
  <defs
     id="defs2" />
  <g
     inkscape:label="Capa 1"
     inkscape:groupmode="layer"
     id="layer1"
     transform="translate(-71.437502,-95.252584)">
    <path
       id="path61314"
       style="fill:#a6c6ff;fill-opacity:1;stroke-width:0.203973"
       d="M 115.08543,97.956802 C 98.70936,97.95666 85.268834,111.46138 84.669975,128.51753 h 10.580028 c 1.322916,-0.19203 1.440054,-1.89747 1.544416,-2.79929 1.266559,-10.94467 7.055221,-17.23662 18.299331,-17.23649 11.2389,9e-5 17.02755,6.28633 18.29763,17.22175 0.10527,0.90638 0.22321,2.622 1.54612,2.81403 h 10.56297 C 144.90162,111.46155 131.46134,97.956893 115.08543,97.956802 Z"
       sodipodi:nodetypes="cccscsccc" />
    <path
       id="path61312"
       style="display:inline;fill:#001c4e;fill-opacity:1;stroke-width:0.203973"
       inkscape:label="circle_inf"
       d="m 92.702871,128.5105 c -0.124835,-0.001 -0.253522,0.001 -0.38654,0.007 h -7.646562 c -0.0135,0.38638 -0.02022,0.77298 -0.02015,1.15962 -1.62e-4,16.13122 11.553401,29.44963 26.506391,31.45854 l -0.031,-0.002 3.96874,8.20226 v 0 l 3.96876,-8.20226 -0.0605,0.004 c 14.95967,-2.00318 26.51896,-15.32521 26.5188,-31.46061 6e-5,-0.38664 -0.007,-0.77324 -0.0202,-1.15962 h -7.65535 c -4.23069,-0.19224 -4.23082,3.40515 -4.23074,3.77651 3e-5,11.29661 -2.60032,16.28064 -13.22917,18.52083 l -3.96875,9.26042 -1.32292,1.32292 h -5.1e-4 l -1.3224,-1.32292 -3.96875,-9.26042 c -10.638704,-2.22947 -13.226819,-7.21628 -13.229167,-18.52083 -9.1e-5,-0.35975 -1.84e-4,-3.74717 -3.870048,-3.78375 z"
       sodipodi:nodetypes="sccccccccccccccccccccss" />
    <path
       style="display:none;fill:#002058;fill-opacity:1;stroke-width:0.454612"
       d="m 112.44792,160.07291 2.64583,-9.26041 2.64583,9.26041 z"
       id="path13470" />
    <path
       id="path64451"
       style="display:none;fill:#002058;fill-opacity:1;stroke-width:0.243137"
       d="m 132.00796,110.14521 -20.77754,18.88722 -14.657503,23.94945 21.797123,-18.04335 z m -16.91421,18.17771 a 3.3072915,3.3072891 0 0 1 3.30729,3.30729 3.3072915,3.3072891 0 0 1 -3.30729,3.30729 3.3072915,3.3072891 0 0 1 -1.0573,-0.1757 c -0.03,-0.22176 -0.12949,-0.57252 -0.001,-0.88263 0.16875,-0.40741 0.12175,-1.68334 0.52916,-1.85209 0.57616,-0.23865 1.22846,1.5875 1.85209,1.5875 0.62363,0 1.32291,-0.69928 1.32291,-1.32291 0,-0.62363 -0.48217,1.0324 -1.05833,0.79375 -0.40741,-0.16875 -1.18009,-1.94792 -1.5875,-2.11667 -0.57616,-0.23865 -0.69929,-1.32292 -1.32292,-1.32292 -0.69349,0 -1.43325,0.81777 -1.95388,1.5441 a 3.3072915,3.3072891 0 0 1 3.2768,-2.86701 z m -1.56115,3.06544 c 0.0812,7.1e-4 0.16028,0.0316 0.23823,0.10956 0.50481,0.50481 -0.34146,2.22499 -0.25011,3.04115 a 3.3072915,3.3072891 0 0 1 -1.70481,-2.47788 l 0.89659,-0.29869 c 0.31375,-0.10459 0.57666,-0.37626 0.8201,-0.37414 z" />
    <g
       id="g97289"
       transform="matrix(2.4556029,0,0,2.1879293,-167.5308,-94.88963)"
       style="display:none">
      <path
         style="display:inline;fill:#002058;fill-opacity:1;stroke-width:0.415454"
         d="m 113.11839,120.70102 1.79578,-11.96466 1.79579,10.82469 z"
         id="path64794" />
      <path
         id="circle64800"
         style="fill:#002058;fill-opacity:1;stroke-width:0.277714"
         d="m 115.09375,91.016674 a 10.583335,10.583334 0 0 0 -10.58333,10.583346 10.583335,10.583334 0 0 0 10.58333,10.58338 10.583335,10.583334 0 0 0 10.58333,-10.58338 10.583335,10.583334 0 0 0 -10.58333,-10.583346 z m -0.13229,0.79375 a 8.598958,8.5989561 0 0 1 8.59896,8.598956 8.598958,8.5989561 0 0 1 -8.59896,8.59901 8.598958,8.5989561 0 0 1 -8.59896,-8.59901 8.598958,8.5989561 0 0 1 8.59896,-8.598956 z" />
      <path
         style="fill:#002058;fill-opacity:1;stroke-width:0.244459"
         d="m 117.21042,108.87451 c 0,0 -0.14661,-1.43254 -0.26459,-2.14218 -0.49363,-2.9693 -1.85208,-8.836488 -1.85208,-8.836488 l 0.26458,11.246438 z"
         id="path69158"
         sodipodi:nodetypes="csccc" />
      <path
         style="fill:#002058;fill-opacity:1;stroke-width:0.244459"
         d="m 112.97708,108.87451 c 0,0 1.22525,-4.96812 1.5875,-7.49764 0.16494,-1.15174 0.26459,-3.481028 0.26459,-3.481028 l 0.26458,11.246438 z"
         id="path70720"
         sodipodi:nodetypes="csccc" />
    </g>
    <path
       style="display:none;fill:#0a63fd;fill-opacity:1;stroke-width:0.256702"
       d="m 95.249999,129.7148 c 0,0 -13.190437,-1.49356 -19.84375,0 -1.834146,0.41175 -3.96875,4.42895 -3.96875,4.42895 0,0 2.584434,-1.28881 3.96875,-1.47632 6.928301,-0.93851 21.166666,0 21.166666,0 l -3.307291,-0.73816 c -2.566578,-0.16135 -3.307292,-0.73815 -3.307292,-0.73815 0,0 0.786486,-0.56872 1.225668,-0.73527 1.300269,-0.49307 4.065999,-0.74105 4.065999,-0.74105 z"
       id="path36358"
       sodipodi:nodetypes="cscscccac" />
    <path
       style="display:none;fill:#0a63fd;fill-opacity:1;stroke-width:0.210447"
       d="m 136.30812,131.53136 c 0,0 10.20204,2.12142 15.82729,2.08333 2.82349,-0.0191 6.61459,-3.96886 6.61459,-3.96886 l -4.76614,0.42374 c -4.19328,0.97606 -12.16719,0.89918 -12.16719,0.89918 -1.66285,0.43379 -5.50855,0.56261 -5.50855,0.56261 z"
       id="path48072"
       sodipodi:nodetypes="cscccc" />
    <path
       id="text81801"
       style="font-style:normal;font-variant:normal;font-weight:bold;font-stretch:normal;font-size:47.0368px;font-family:'Californian FB';-inkscape-font-specification:'Californian FB Bold';text-align:center;text-anchor:middle;display:none;fill:#002058;fill-opacity:1;stroke-width:1.04615"
       d="m 126.23889,136.26042 c -0.0241,0 -0.10852,0.0232 -0.25352,0.0699 -0.8336,0.17479 -1.55272,0.3088 -2.15678,0.40203 -0.12083,0.0232 -0.25947,0.22723 -0.41653,0.61179 -0.19333,0.50109 -0.45339,1.07212 -0.77959,1.71302 -0.37452,0.75747 -1.94496,4.18333 -4.71156,10.27788 -1.49811,3.37938 -2.95397,6.67159 -4.36749,9.87618 -0.37452,0.68753 -0.67636,1.03132 -0.90591,1.03132 h -1.35911 c -0.10875,0 -0.1634,0.0641 -0.1634,0.19227 v 0.78661 c 0,0.11651 0.0667,0.17442 0.19965,0.17442 h 7.68371 c 0.12081,0 0.18109,-0.0578 0.18109,-0.17442 v -0.71668 c 0,-0.1748 -0.0724,-0.2622 -0.21731,-0.2622 h -2.71863 c -0.19329,0 -0.3018,-0.18646 -0.32598,-0.55935 0.0725,-0.65259 0.25378,-1.39843 0.54373,-2.23746 0.3866,-1.28183 0.8818,-2.75604 1.48586,-4.42242 0.0603,-0.1165 0.16332,-0.19228 0.3083,-0.22724 h 8.64398 c 0.18123,0 0.31429,0.12235 0.39885,0.36708 0.0845,0.16313 0.50743,1.26442 1.26854,3.30373 0.72488,1.981 1.1232,3.08811 1.19569,3.32118 0.0123,0.0582 0.0246,0.10472 0.0366,0.13989 0.0241,0.20974 -0.0545,0.31463 -0.23586,0.31463 h -2.17446 c -0.15706,0 -0.23586,0.0874 -0.23586,0.26219 v 0.68172 c 0,0.13989 0.0365,0.20939 0.10909,0.20939 h 8.8794 c 0.0725,0 0.10908,-0.0578 0.10908,-0.17442 v -0.71669 c 0,-0.17479 -0.0485,-0.26219 -0.14532,-0.26219 h -1.30475 c -0.27787,0 -0.74896,-0.65261 -1.41344,-1.95777 -0.91817,-1.82954 -2.00545,-4.43416 -3.26192,-7.81356 -1.3652,-3.6707 -2.13252,-5.71012 -2.30166,-6.11798 -1.01482,-2.47044 -1.61853,-4.08997 -1.81184,-4.85906 -0.18122,-0.67588 -0.27208,-1.11873 -0.27208,-1.32847 0,-0.20976 0.11501,-0.46032 0.34451,-0.75165 0.1933,-0.24472 0.31388,-0.39621 0.36221,-0.4545 0.0603,-0.0698 0.1211,-0.1456 0.18152,-0.22722 0,-0.12825 -0.0428,-0.23889 -0.12715,-0.33213 -0.0845,-0.0932 -0.17501,-0.13987 -0.27166,-0.13987 z m -3.22569,5.6635 c 0.16914,0 0.31426,0.20394 0.43506,0.61182 0.48326,1.45661 0.94229,2.84889 1.37722,4.17732 0.99068,2.6336 1.55821,4.16027 1.7032,4.57978 0.0603,0.17479 0.0363,0.26219 -0.0724,0.26219 H 118.845 c -0.0845,0 -0.13279,-0.0291 -0.14489,-0.0874 0,-0.035 0.024,-0.12825 0.0724,-0.27967 0.78527,-1.79458 1.5285,-3.48439 2.22922,-5.0692 0.55573,-1.3168 1.063,-2.51096 1.52208,-3.58303 0.15705,-0.40787 0.32025,-0.61181 0.48939,-0.61181 z"
       inkscape:label="A" />
    <text
       xml:space="preserve"
       style="font-style:normal;font-variant:normal;font-weight:bold;font-stretch:normal;font-size:37.2371px;font-family:'Californian FB';-inkscape-font-specification:'Californian FB Bold';text-align:center;text-anchor:middle;display:none;fill:#002058;fill-opacity:1;stroke-width:1.06873"
       x="104.25484"
       y="162.86462"
       id="text87425"
       transform="scale(1.0091005,0.99098154)"
       inkscape:label="4"><tspan
         sodipodi:role="line"
         id="tspan87423"
         style="font-style:normal;font-variant:normal;font-weight:bold;font-stretch:normal;font-family:'Californian FB';-inkscape-font-specification:'Californian FB Bold';fill:#002058;fill-opacity:1;stroke-width:1.06873"
         x="104.25484"
         y="162.86462">4</tspan></text>
    <path
       style="display:none;fill:#ffaf00;fill-opacity:1;stroke-width:0.283463"
       d="m 90.203378,130.96875 -1.543002,-1.5434 c 0,0 -0.393656,-2.1362 0,-3.08681 0.278355,-0.67219 1.117696,-0.95317 1.543002,-1.5434 0.672469,-0.93324 1.543003,-3.08681 1.543003,-3.08681 0,0 -0.590481,3.20429 0,4.63021 0.278355,0.67219 2.11099,1.0889 1.543002,1.54341 -1.543001,1.23472 -3.086005,3.0868 -3.086005,3.0868 z"
       id="path98482"
       sodipodi:nodetypes="ccsscssc" />
    <path
       style="display:none;fill:#ffaf00;fill-opacity:1;stroke-width:0.235955"
       d="m 139.69995,131.76249 1.32291,-1.24731 c 0,0 1.32292,-1.56495 1.32292,-2.49464 0,-0.92971 -0.88195,-1.6631 -1.32292,-2.49465 -0.44097,-0.83154 -1.32291,-2.49464 -1.32291,-2.49464 0,0 -0.5898,2.62354 -1.32292,3.74196 -0.32786,0.50018 -1.11843,1.33414 -1.11843,1.92214 0,0.58799 -0.04,1.34282 0.32468,1.81983 0.57655,0.75421 2.11667,1.24731 2.11667,1.24731 z"
       id="path100266"
       sodipodi:nodetypes="ccsscsssc" />
    <rect
       style="fill:#ffc500;fill-opacity:1;stroke-width:1.15975"
       id="rect14282"
       width="18.941391"
       height="18.941387"
       x="-224.45543"
       y="50.192612"
       transform="matrix(-0.41905907,-0.90795897,0.41905933,-0.90795885,0,0)" />
    <path
       style="display:none;fill:#ffe000;fill-opacity:1;stroke-width:0.0720256"
       d="m 90.202572,130.97082 -0.34901,-0.44054 c 0,0 -0.08904,-0.60975 0,-0.88108 0.06296,-0.19187 0.252811,-0.27207 0.34901,-0.44055 0.152105,-0.26638 0.349011,-0.88108 0.349011,-0.88108 0,0 -0.133561,0.91462 0,1.32163 0.06296,0.19186 0.477483,0.3108 0.34901,0.44054 -0.34901,0.35243 -0.698021,0.88108 -0.698021,0.88108 z"
       id="path15788"
       sodipodi:nodetypes="ccsscssc" />
    <path
       style="display:none;fill:#ffe000;fill-opacity:1;stroke-width:0.0475992"
       d="m 139.78447,131.76249 0.22234,-0.30201 c 0,0 0.22235,-0.37892 0.22235,-0.60402 0,-0.22511 -0.14823,-0.40268 -0.22235,-0.60402 -0.0741,-0.20134 -0.22234,-0.60402 -0.22234,-0.60402 0,0 -0.0991,0.63523 -0.22235,0.90603 -0.0551,0.12111 -0.18797,0.32303 -0.18797,0.4654 0,0.14237 -0.007,0.32513 0.0546,0.44063 0.0969,0.18262 0.35575,0.30201 0.35575,0.30201 z"
       id="path15928"
       sodipodi:nodetypes="ccsscsssc" />
  </g>
</svg>
